<svg id="svg" version="1.1" width="540" height="873" xmlns="http://www.w3.org/2000/svg">
    <path
        d="M40.384 16.412 C 29.826 18.974,21.259 26.245,16.125 37.000 L 13.500 42.500 13.196 286.500 C 12.966 470.343,13.180 531.856,14.064 536.000 C 15.701 543.678,18.405 548.542,24.036 553.941 C 32.620 562.172,43.624 565.731,54.922 563.930 C 67.055 561.997,78.515 552.797,83.179 541.247 L 85.500 535.500 85.500 290.000 L 85.500 44.500 83.094 38.525 C 78.620 27.414,68.096 18.648,56.201 16.124 C 49.747 14.755,47.005 14.805,40.384 16.412 M40.384 660.412 C 29.826 662.974,21.259 670.245,16.125 681.000 C 13.670 686.143,13.503 687.408,13.540 700.500 C 13.622 729.003,21.091 755.406,36.313 781.000 C 58.808 818.821,97.342 848.204,138.000 858.536 C 158.021 863.623,147.304 863.331,327.407 863.703 C 478.489 864.016,495.861 863.892,500.776 862.463 C 510.925 859.512,519.363 852.399,523.866 843.000 C 526.141 838.250,526.500 836.204,526.500 828.000 C 526.500 819.868,526.127 817.705,523.912 812.983 C 520.774 806.294,513.110 798.284,507.000 795.309 C 504.525 794.104,499.575 792.644,496.000 792.066 C 491.652 791.363,436.688 791.013,330.000 791.007 C 194.762 791.001,169.359 790.779,163.000 789.549 C 138.259 784.763,118.860 771.982,102.214 749.500 C 92.665 736.604,87.545 721.248,85.960 700.753 C 84.719 684.708,82.552 678.521,75.596 671.166 C 69.876 665.118,64.018 661.783,56.201 660.124 C 49.747 658.755,47.005 658.805,40.384 660.412 "
        stroke="none" fill="white" fillRule="evenodd" />
</svg>